<svg xmlns="http://www.w3.org/2000/svg" width="18.795" height="22.915" viewBox="0 0 18.795 22.915">
  <g id="apple" transform="translate(0)">
    <path id="Path_1321" data-name="Path 1321" d="M52.253,135.593c-3.41-.02-6.231-6.981-6.231-10.527,0-5.792,4.345-7.059,6.019-7.059a6.926,6.926,0,0,1,2.271.559,5.077,5.077,0,0,0,1.3.372,4.035,4.035,0,0,0,.93-.3,7.456,7.456,0,0,1,2.8-.678h.007a5.747,5.747,0,0,1,4.809,2.429l.351.527-.5.381a4.248,4.248,0,0,0-2.037,3.5,3.954,3.954,0,0,0,2.206,3.655c.316.19.643.386.643.815,0,.28-2.234,6.291-5.479,6.291a4.406,4.406,0,0,1-1.85-.449,3.751,3.751,0,0,0-1.647-.4,4.236,4.236,0,0,0-1.3.353,6.387,6.387,0,0,1-2.262.528Z" transform="translate(-46.022 -112.679)" fill="#6a69e8"/>
    <path id="Path_1322" data-name="Path 1322" d="M259.459,0c.085,3.047-2.094,5.16-4.271,5.028C254.83,2.6,257.365,0,259.459,0Z" transform="translate(-245.795)" fill="#6a69e8"/>
  </g>
</svg>
