<svg xmlns="http://www.w3.org/2000/svg" xmlns:xlink="http://www.w3.org/1999/xlink" width="88" height="89" viewBox="0 0 88 89">
  <defs>
    <filter id="Rectangle_1450" x="0" y="0" width="88" height="89" filterUnits="userSpaceOnUse">
      <feOffset dy="3" input="SourceAlpha"/>
      <feGaussianBlur stdDeviation="3" result="blur"/>
      <feFlood flood-color="#3f8795" flood-opacity="0.2"/>
      <feComposite operator="in" in2="blur"/>
      <feComposite in="SourceGraphic"/>
    </filter>
  </defs>
  <g id="Breakdown" transform="translate(-915 -149)">
    <g transform="matrix(1, 0, 0, 1, 915, 149)" filter="url(#Rectangle_1450)">
      <rect id="Rectangle_1450-2" data-name="Rectangle 1450" width="70" height="71" rx="15" transform="translate(9 6)" fill="#fff"/>
    </g>
    <g id="tow-truck" transform="translate(912.817 77.871)">
      <path id="Path_4024" data-name="Path 4024" d="M360.863,204.94l-.5.593a4.835,4.835,0,0,1,.983.2Z" transform="translate(-303.323 -100.583)" fill="#10798d"/>
      <path id="Path_4025" data-name="Path 4025" d="M321.144,222.617a1.854,1.854,0,0,1,1.781,1.35h2.054a3.868,3.868,0,0,0-7.672,0h2.054A1.854,1.854,0,0,1,321.144,222.617Z" transform="translate(-264.59 -114.67)" fill="#10798d"/>
      <path id="Path_4026" data-name="Path 4026" d="M373.91,189.586l.826-1.186-1.692-2.779-.939,1.127,1.619,2.659C373.788,189.464,373.85,189.524,373.91,189.586Z" transform="translate(-313.886 -83.203)" fill="#10798d"/>
      <path id="Path_4027" data-name="Path 4027" d="M348.713,251.037h1.364a.845.845,0,0,0-1.364,0Z" transform="translate(-292.842 -141.74)" fill="#10798d"/>
      <path id="Path_4028" data-name="Path 4028" d="M23.469,341.734a.286.286,0,0,0-.286.286v3.235a.286.286,0,0,0,.286.286h3.479a5.581,5.581,0,0,1,.91-3.807Z" transform="translate(0 -223.641)" fill="#10798d"/>
      <path id="Path_4029" data-name="Path 4029" d="M422.58,129.514l-1.326-2.178-.186.226-.748.908,1.4,2.293Z" transform="translate(-357.258 -30.772)" fill="#10798d"/>
      <path id="Path_4030" data-name="Path 4030" d="M438.5,109.864l-1.2-1.976-.935,1.133,1.274,2.093Z" transform="translate(-371.688 -13.277)" fill="#10798d"/>
      <path id="Path_4031" data-name="Path 4031" d="M390.713,168.8l-1.569-2.577-.936,1.131,1.64,2.694Z" transform="translate(-328.371 -65.756)" fill="#10798d"/>
      <circle id="Ellipse_163" data-name="Ellipse 163" cx="0.68" cy="0.68" r="0.68" transform="translate(31.848 120.541)" fill="#10798d"/>
      <path id="Path_4032" data-name="Path 4032" d="M406.661,149.169l-1.447-2.377-.935,1.132,1.517,2.493Z" transform="translate(-342.828 -48.274)" fill="#10798d"/>
      <path id="Path_4033" data-name="Path 4033" d="M449.7,337.83v-3.092h-1.666Z" transform="translate(-382.188 -217.347)" fill="#10798d"/>
      <path id="Path_4034" data-name="Path 4034" d="M342.887,326.894a4.618,4.618,0,1,0,4.618,4.618A4.618,4.618,0,0,0,342.887,326.894Zm0,6.3a1.684,1.684,0,1,1,1.684-1.684A1.684,1.684,0,0,1,342.887,333.2Z" transform="translate(-283.446 -210.291)" fill="#10798d"/>
      <circle id="Ellipse_164" data-name="Ellipse 164" cx="0.68" cy="0.68" r="0.68" transform="translate(58.761 120.541)" fill="#10798d"/>
      <path id="Path_4035" data-name="Path 4035" d="M474.624,348.193h1.425v2.371h-1.425Z" transform="translate(-406.109 -229.451)" fill="#10798d"/>
      <path id="Path_4036" data-name="Path 4036" d="M232.048,264.134v6.085h12.419a5.606,5.606,0,0,1,5.731,0h5.2V267.8l-4.114-3.662Z" transform="translate(-187.892 -153.833)" fill="#10798d"/>
      <path id="Path_4037" data-name="Path 4037" d="M174.515,194.539h2.611v5.2h-2.611Z" transform="translate(-136.136 -91.226)" fill="#10798d"/>
      <path id="Path_4038" data-name="Path 4038" d="M74.867,326.894a4.618,4.618,0,1,0,4.618,4.618A4.618,4.618,0,0,0,74.867,326.894Zm0,6.3a1.684,1.684,0,1,1,1.684-1.684A1.684,1.684,0,0,1,74.867,333.2Z" transform="translate(-42.34 -210.291)" fill="#10798d"/>
      <path id="Path_4039" data-name="Path 4039" d="M127.019,194.539h-2.846l-1.339,5.2h4.185Z" transform="translate(-89.644 -91.226)" fill="#10798d"/>
      <path id="Path_4040" data-name="Path 4040" d="M442.06,106.492a.5.5,0,1,0-.74-.679,1.86,1.86,0,0,1-1.491.6,1.882,1.882,0,0,1-1.738-1.742,1.852,1.852,0,0,1,1.089-1.811,2.141,2.141,0,0,0,1.271-1.934v-6.25c.223-.447.316-1.1-.123-1.386a.993.993,0,0,0-1.058-.015,2.23,2.23,0,0,0-.579.437l-.068.082.823,1.353v5.779a1.121,1.121,0,0,1-.682,1.02,2.866,2.866,0,0,0,1,5.47q.091.006.182.006A2.854,2.854,0,0,0,442.06,106.492Z" transform="translate(-372.338)" fill="#10798d"/>
      <path id="Path_4041" data-name="Path 4041" d="M57.68,188.734v-7.088c-.007-2.335,0-5.367,0-7.747a.9.9,0,0,0-.9-.9H47.939a.9.9,0,0,0-.875.679l-1.87,7.29a.5.5,0,0,1-.234.309l-4.378,2.543a2.518,2.518,0,0,0-1.249,2.171v2.948h3.915a5.608,5.608,0,0,1,5.4-1.259v-6.316H47.069a.5.5,0,0,1-.486-.627l1.6-6.2a.5.5,0,0,1,.486-.377h7.353a.5.5,0,0,1,.5.5v6.2a.5.5,0,0,1-.5.5H49.652v6.723a5.627,5.627,0,0,1,3.023,4.875H57.68V191.49a.5.5,0,0,1,.5-.5h8.485l-1.383,2.567a.5.5,0,1,0,.884.476l2.584-4.8H58.182a.5.5,0,0,1-.5-.5Z" transform="translate(-14.527 -71.845)" fill="#10798d"/>
    </g>
  </g>
</svg>
