<svg id="Due" xmlns="http://www.w3.org/2000/svg" width="30" height="30" viewBox="0 0 30 30">
  <g id="Group_2358" data-name="Group 2358" transform="translate(6.429)">
    <g id="Group_2357" data-name="Group 2357">
      <path id="Path_4062" data-name="Path 4062" d="M103.471,0A1.071,1.071,0,0,0,102.4,1.071V3.214h2.143V1.071A1.071,1.071,0,0,0,103.471,0Z" transform="translate(-102.4)" fill="#04bcd9"/>
    </g>
  </g>
  <g id="Group_2360" data-name="Group 2360" transform="translate(21.429)">
    <g id="Group_2359" data-name="Group 2359">
      <path id="Path_4063" data-name="Path 4063" d="M342.4,0a1.071,1.071,0,0,0-1.071,1.071V3.214h2.143V1.071A1.071,1.071,0,0,0,342.4,0Z" transform="translate(-341.333)" fill="#04bcd9"/>
    </g>
  </g>
  <g id="Group_2362" data-name="Group 2362" transform="translate(0 3.214)">
    <g id="Group_2361" data-name="Group 2361">
      <path id="Path_4064" data-name="Path 4064" d="M26.786,51.2H23.571v4.286a1.071,1.071,0,1,1-2.143,0V51.2H8.571v4.286a1.071,1.071,0,1,1-2.143,0V51.2H3.214A3.214,3.214,0,0,0,0,54.414V74.771a3.214,3.214,0,0,0,3.214,3.214H26.786A3.214,3.214,0,0,0,30,74.771V54.414A3.214,3.214,0,0,0,26.786,51.2Zm1.071,23.571a1.071,1.071,0,0,1-1.071,1.071H3.214a1.071,1.071,0,0,1-1.071-1.071V60.843H27.857Z" transform="translate(0 -51.2)" fill="#04bcd9"/>
    </g>
  </g>
  <g id="Group_2364" data-name="Group 2364" transform="translate(5.357 15)">
    <g id="Group_2363" data-name="Group 2363">
      <path id="Path_4065" data-name="Path 4065" d="M88.547,238.933H86.4a1.071,1.071,0,1,0,0,2.143h2.143a1.071,1.071,0,1,0,0-2.143Z" transform="translate(-85.333 -238.933)" fill="#04bcd9"/>
    </g>
  </g>
  <g id="Group_2366" data-name="Group 2366" transform="translate(12.857 15)">
    <g id="Group_2365" data-name="Group 2365">
      <path id="Path_4066" data-name="Path 4066" d="M208.014,238.933h-2.143a1.071,1.071,0,0,0,0,2.143h2.143a1.071,1.071,0,0,0,0-2.143Z" transform="translate(-204.8 -238.933)" fill="#04bcd9"/>
    </g>
  </g>
  <g id="Group_2368" data-name="Group 2368" transform="translate(20.357 15)">
    <g id="Group_2367" data-name="Group 2367">
      <path id="Path_4067" data-name="Path 4067" d="M327.481,238.933h-2.143a1.071,1.071,0,0,0,0,2.143h2.143a1.071,1.071,0,0,0,0-2.143Z" transform="translate(-324.267 -238.933)" fill="#04bcd9"/>
    </g>
  </g>
  <g id="Group_2370" data-name="Group 2370" transform="translate(5.357 19.286)">
    <g id="Group_2369" data-name="Group 2369">
      <path id="Path_4068" data-name="Path 4068" d="M88.547,307.2H86.4a1.071,1.071,0,0,0,0,2.143h2.143a1.071,1.071,0,0,0,0-2.143Z" transform="translate(-85.333 -307.2)" fill="#04bcd9"/>
    </g>
  </g>
  <g id="Group_2372" data-name="Group 2372" transform="translate(12.857 19.286)">
    <g id="Group_2371" data-name="Group 2371">
      <path id="Path_4069" data-name="Path 4069" d="M208.014,307.2h-2.143a1.071,1.071,0,0,0,0,2.143h2.143a1.071,1.071,0,0,0,0-2.143Z" transform="translate(-204.8 -307.2)" fill="#04bcd9"/>
    </g>
  </g>
  <g id="Group_2374" data-name="Group 2374" transform="translate(20.357 19.286)">
    <g id="Group_2373" data-name="Group 2373">
      <path id="Path_4070" data-name="Path 4070" d="M327.481,307.2h-2.143a1.071,1.071,0,0,0,0,2.143h2.143a1.071,1.071,0,0,0,0-2.143Z" transform="translate(-324.267 -307.2)" fill="#04bcd9"/>
    </g>
  </g>
  <g id="Group_2376" data-name="Group 2376" transform="translate(5.357 23.571)">
    <g id="Group_2375" data-name="Group 2375">
      <path id="Path_4071" data-name="Path 4071" d="M88.547,375.467H86.4a1.071,1.071,0,1,0,0,2.143h2.143a1.071,1.071,0,1,0,0-2.143Z" transform="translate(-85.333 -375.467)" fill="#04bcd9"/>
    </g>
  </g>
  <g id="Group_2378" data-name="Group 2378" transform="translate(12.857 23.571)">
    <g id="Group_2377" data-name="Group 2377">
      <path id="Path_4072" data-name="Path 4072" d="M208.014,375.467h-2.143a1.071,1.071,0,1,0,0,2.143h2.143a1.071,1.071,0,0,0,0-2.143Z" transform="translate(-204.8 -375.467)" fill="#04bcd9"/>
    </g>
  </g>
  <g id="Group_2380" data-name="Group 2380" transform="translate(20.357 23.571)">
    <g id="Group_2379" data-name="Group 2379">
      <path id="Path_4073" data-name="Path 4073" d="M327.481,375.467h-2.143a1.071,1.071,0,1,0,0,2.143h2.143a1.071,1.071,0,0,0,0-2.143Z" transform="translate(-324.267 -375.467)" fill="#04bcd9"/>
    </g>
  </g>
</svg>
