<svg xmlns="http://www.w3.org/2000/svg" width="28.196" height="37.918" viewBox="0 0 28.196 37.918">
  <path id="E-TP_Details" data-name="E-TP Details" d="M42.4-1404.082H20.686a3.916,3.916,0,0,1-2.3-1.08,5.711,5.711,0,0,1-1.422-3.9,7.589,7.589,0,0,0-.076-.8v-29.421h18.8v6.109a.676.676,0,0,0,.671.679H42.4v28.415Zm-12.769-10.766a4.651,4.651,0,0,0-2.664.836,4.816,4.816,0,0,0-1.4,6.338,4.726,4.726,0,0,0,4.072,2.361,4.627,4.627,0,0,0,2.078-.491A4.807,4.807,0,0,0,34-1411.873l1.417-1.074a.676.676,0,0,0,.262-.449.679.679,0,0,0-.128-.5.664.664,0,0,0-.538-.272.662.662,0,0,0-.4.136l-1.293.981A4.673,4.673,0,0,0,29.627-1414.848Zm7.4,6.788a.676.676,0,0,0-.671.679.676.676,0,0,0,.671.679h3.357a.676.676,0,0,0,.672-.679.676.676,0,0,0-.672-.679Zm0-2.715a.676.676,0,0,0-.671.679.676.676,0,0,0,.671.679h2.014a.676.676,0,0,0,.671-.679.676.676,0,0,0-.671-.679Zm-6.713-6.789a.676.676,0,0,0-.671.679.676.676,0,0,0,.671.679h6.042a.676.676,0,0,0,.671-.679.676.676,0,0,0-.671-.679Zm-3.357,0a.676.676,0,0,0-.671.679.676.676,0,0,0,.671.679h.671a.676.676,0,0,0,.672-.679.676.676,0,0,0-.672-.679Zm-4.7,0a.676.676,0,0,0-.672.679.676.676,0,0,0,.672.679h2.014a.676.676,0,0,0,.672-.679.676.676,0,0,0-.672-.679Zm11.412-3.394a.676.676,0,0,0-.671.679.676.676,0,0,0,.671.679h4.7a.676.676,0,0,0,.671-.679.676.676,0,0,0-.671-.679Zm-12.755,0a.676.676,0,0,0-.671.679.676.676,0,0,0,.671.679h10.07a.676.676,0,0,0,.672-.679.676.676,0,0,0-.672-.679Zm6.6-3.394H31.1a2.017,2.017,0,0,0,1.9,1.357,2.019,2.019,0,0,0,1.9-1.357h1.458a.676.676,0,0,0,.671-.679v-2.716a.677.677,0,0,0-.508-.659l-2.386-.6-1.2-2.437a.669.669,0,0,0-.6-.375H25.612a.667.667,0,0,0-.6.375l-1.218,2.464-1.75.59a.677.677,0,0,0-.459.644v2.716a.676.676,0,0,0,.672.679h1.458a2.019,2.019,0,0,0,1.9,1.357,2.02,2.02,0,0,0,1.9-1.356ZM43.739-1406.7v-26.476s0,0,0-.006,0,0,0-.006a.073.073,0,0,1,0-.011.079.079,0,0,1,0-.011s0,0,0-.007,0,0,0-.005a.687.687,0,0,0-.01-.085.743.743,0,0,0-.024-.086c0-.008,0-.015-.007-.021a.738.738,0,0,0-.033-.076l0,0a.637.637,0,0,0-.047-.074l-.013-.018a.657.657,0,0,0-.058-.068l-6.713-6.789a.725.725,0,0,0-.068-.059l-.009-.007-.007,0a.689.689,0,0,0-.076-.048l-.005,0c-.022-.011-.046-.022-.075-.034l-.011,0-.007,0h0a.681.681,0,0,0-.083-.023.784.784,0,0,0-.086-.011H19.57V-1442l17.014.061s0,0,.019,0h.274a10.149,10.149,0,0,1,4.521,1.144,6.785,6.785,0,0,1,2.462,2.247,8.155,8.155,0,0,1,1.221,4.113v27.733H43.739Zm-14.095,0a3.34,3.34,0,0,1-2.975-1.825,3.405,3.405,0,0,1,1.13-4.4,3.31,3.31,0,0,1,1.842-.559,3.331,3.331,0,0,1,2.6,1.248l-2.538,1.925-.931-.942a.663.663,0,0,0-.475-.2.661.661,0,0,0-.474.2.678.678,0,0,0-.2.48.679.679,0,0,0,.2.48l1.342,1.358a.665.665,0,0,0,.475.2.66.66,0,0,0,.4-.135l2.827-2.144a3.392,3.392,0,0,1-1.99,4.076A3.3,3.3,0,0,1,29.644-1406.7ZM33-1424.352a.676.676,0,0,1-.671-.679.676.676,0,0,1,.671-.679.676.676,0,0,1,.671.679A.676.676,0,0,1,33-1424.352Zm-7.385,0a.676.676,0,0,1-.671-.679.676.676,0,0,1,.671-.679.676.676,0,0,1,.671.679A.676.676,0,0,1,25.612-1424.352Zm5.486-1.357H27.511a2.018,2.018,0,0,0-1.9-1.356,2.019,2.019,0,0,0-1.9,1.356h-.787v-1.547l1.452-.489h9.208l2.1.53v1.505H34.9a2.019,2.019,0,0,0-1.9-1.356,2.018,2.018,0,0,0-1.9,1.356Zm1.484-3.395H29.64v-1.358h2.27l.671,1.357Zm-4.285,0H25.356l.671-1.358H28.3v1.358Zm13.149-4.752H37.025v-4.471l4.421,4.47Z" transform="translate(-16.885 1442)" fill="#04bcd9"/>
</svg>
