<svg id="Pending" xmlns="http://www.w3.org/2000/svg" width="31.292" height="29.336" viewBox="0 0 31.292 29.336">
  <g id="Group_2382" data-name="Group 2382" transform="translate(9.229 5.5)">
    <g id="Group_2381" data-name="Group 2381">
      <path id="Path_4074" data-name="Path 4074" d="M157.417,106a6.417,6.417,0,1,0,6.417,6.417A6.425,6.425,0,0,0,157.417,106Zm-2.75,3.667a.917.917,0,1,1-.917.917A.917.917,0,0,1,154.667,109.666Zm5.991,6.147a.916.916,0,0,1-1.3,0,2.753,2.753,0,0,0-3.889,0,.917.917,0,0,1-1.3-1.3,4.589,4.589,0,0,1,6.482,0A.916.916,0,0,1,160.658,115.813Zm-.491-4.313a.917.917,0,1,1,.917-.917A.917.917,0,0,1,160.167,111.5Z" transform="translate(-151 -105.999)" fill="#5d5ddf"/>
    </g>
  </g>
  <g id="Group_2384" data-name="Group 2384" transform="translate(0 0)">
    <g id="Group_2383" data-name="Group 2383">
      <path id="Path_4075" data-name="Path 4075" d="M28.541,16H2.75A2.753,2.753,0,0,0,0,18.749V37.084a2.753,2.753,0,0,0,2.75,2.75H5.562v4.584a.918.918,0,0,0,1.565.648l5.232-5.232H28.541a2.753,2.753,0,0,0,2.75-2.75V18.749A2.753,2.753,0,0,0,28.541,16Zm-12.9,20.168A8.251,8.251,0,1,1,23.9,27.917,8.26,8.26,0,0,1,15.646,36.167Z" transform="translate(0 -15.999)" fill="#5d5ddf"/>
    </g>
  </g>
</svg>
