<svg xmlns="http://www.w3.org/2000/svg" width="20.514" height="22.915" viewBox="0 0 20.514 22.915">
  <path id="play-store" d="M30.565,9.824,13.812.247A1.878,1.878,0,0,0,12.88,0H12.86c-.043,0-.086,0-.129.006l-.058.006-.1.014-.036.005h0A1.878,1.878,0,0,0,11,1.881V21.034a1.878,1.878,0,0,0,1.538,1.848h0l.033,0q.054.009.108.015l.054.005c.042,0,.085.005.127.006h.021a1.878,1.878,0,0,0,.932-.247l16.753-9.577a1.88,1.88,0,0,0,.947-1.633h0A1.881,1.881,0,0,0,30.565,9.824Zm-6.625-1.9-1.666,2.185-4.238-5.56Zm5.813,3.748-11.717,6.7,7.336-9.625,4.381,2.5a.244.244,0,0,1,0,.423Z" transform="translate(-10.998)" fill="#6a69e8"/>
</svg>
